%
M48
M72
T01C0.032000
T02C0.035433
T03C0.036220
T04C0.039370
T05C0.040000
T06C0.044000
T07C0.086614
T08C0.090000
T09C0.090551
%
T01
X250000Y160000
X400000Y160000
X525000Y235000
X525000Y335000
X550000Y460000
X550000Y560000
X550000Y660000
X550000Y760000
X400000Y560000
X250000Y560000
X250000Y760000
X350000Y760000
X250000Y1060000
X650000Y1060000
X820000Y1060000
X920000Y1060000
X1020000Y1060000
X1200000Y1060000
X1150000Y1360000
X1020000Y1360000
X920000Y1360000
X820000Y1360000
X1150000Y1760000
X1150000Y1860000
X750000Y1860000
X850000Y760000
X850000Y660000
X850000Y560000
X850000Y460000
X925000Y335000
X925000Y235000
X1025000Y460000
X1025000Y560000
X1200000Y660000
T02
X483071Y1376142
X384646Y1376142
X384646Y1458819
X384646Y1561181
X384646Y1643858
X483071Y1643858
T03
X1414567Y409213
X1493307Y409213
X1493307Y310787
X1414567Y310787
T04
X1625000Y755000
X1825000Y755000
X1825000Y1315000
X1625000Y1315000
T05
X1725000Y1153000
X1725000Y1035000
X1725000Y917000
T06
X1350000Y1060000
X1075000Y885000
X1000000Y760000
X1150000Y560000
X1350000Y660000
X1150000Y160000
X650000Y910000
X500000Y910000
T07
X235039Y1510000
T08
X1270669Y1560000
X1369094Y1355276
X1369094Y1805276
X1270669Y2010000
X1810039Y2010000
X1810039Y1560000
T09
X1600000Y597008
X1600000Y122992
M30
