G75*
%MOIN*%
%OFA0B0*%
%FSLAX25Y25*%
%IPPOS*%
%LPD*%
%AMOC8*
5,1,8,0,0,1.08239X$1,22.5*
%
%ADD10C,0.05200*%
%ADD11C,0.07400*%
%ADD12OC8,0.05200*%
%ADD13C,0.06600*%
%ADD14C,0.13055*%
%ADD15C,0.05622*%
%ADD16OC8,0.06300*%
%ADD17C,0.06300*%
%ADD18OC8,0.05543*%
%ADD19OC8,0.08500*%
%ADD20C,0.13000*%
%ADD21C,0.02400*%
D10*
X0052400Y0046000D02*
X0057600Y0046000D01*
X0057600Y0056000D02*
X0052400Y0056000D01*
X0052400Y0066000D02*
X0057600Y0066000D01*
X0057600Y0076000D02*
X0052400Y0076000D01*
X0082000Y0100800D02*
X0082000Y0106000D01*
X0092000Y0106000D02*
X0092000Y0100800D01*
X0102000Y0100800D02*
X0102000Y0106000D01*
X0102000Y0136000D02*
X0102000Y0141200D01*
X0092000Y0141200D02*
X0092000Y0136000D01*
X0082000Y0136000D02*
X0082000Y0141200D01*
X0082400Y0076000D02*
X0087600Y0076000D01*
X0087600Y0066000D02*
X0082400Y0066000D01*
X0082400Y0056000D02*
X0087600Y0056000D01*
X0087600Y0046000D02*
X0082400Y0046000D01*
D11*
X0035000Y0076000D03*
X0025000Y0076000D03*
X0172500Y0091700D03*
X0172500Y0103500D03*
X0172500Y0115300D03*
D12*
X0120000Y0106000D03*
X0115000Y0136000D03*
X0115000Y0176000D03*
X0115000Y0186000D03*
X0075000Y0186000D03*
X0065000Y0106000D03*
X0025000Y0106000D03*
X0025000Y0056000D03*
X0040000Y0056000D03*
X0052500Y0033500D03*
X0052500Y0023500D03*
X0040000Y0016000D03*
X0025000Y0016000D03*
X0092500Y0023500D03*
X0092500Y0033500D03*
X0120000Y0066000D03*
D13*
X0115000Y0056000D03*
X0135000Y0066000D03*
X0162500Y0075500D03*
X0182500Y0075500D03*
X0135000Y0106000D03*
X0162500Y0131500D03*
X0182500Y0131500D03*
X0115000Y0016000D03*
D14*
X0160000Y0012299D03*
X0160000Y0059701D03*
D15*
X0149331Y0040921D03*
X0141457Y0040921D03*
X0141457Y0031079D03*
X0149331Y0031079D03*
D16*
X0102500Y0056000D03*
D17*
X0102500Y0046000D03*
D18*
X0048307Y0137614D03*
X0038465Y0137614D03*
X0038465Y0145882D03*
X0038465Y0156118D03*
X0038465Y0164386D03*
X0048307Y0164386D03*
D19*
X0050000Y0091000D03*
X0065000Y0091000D03*
X0100000Y0076000D03*
X0107500Y0088500D03*
D20*
X0136909Y0135528D03*
X0127067Y0156000D03*
X0136909Y0180528D03*
X0127067Y0201000D03*
X0181004Y0201000D03*
X0181004Y0156000D03*
D21*
X0010200Y0111000D02*
X0010200Y0006200D01*
X0154039Y0006200D01*
X0152771Y0007469D01*
X0151472Y0010603D01*
X0151472Y0013995D01*
X0152771Y0017130D01*
X0155170Y0019529D01*
X0158304Y0020827D01*
X0161696Y0020827D01*
X0164830Y0019529D01*
X0167229Y0017130D01*
X0168528Y0013995D01*
X0168528Y0010603D01*
X0167229Y0007469D01*
X0165961Y0006200D01*
X0185501Y0006200D01*
X0185501Y0068500D01*
X0142500Y0068500D01*
X0142500Y0111000D01*
X0137302Y0111000D01*
X0137883Y0110704D01*
X0138583Y0110195D01*
X0139195Y0109583D01*
X0139704Y0108883D01*
X0140097Y0108111D01*
X0140365Y0107288D01*
X0140500Y0106433D01*
X0140500Y0106000D01*
X0135000Y0106000D01*
X0135000Y0106000D01*
X0135000Y0106000D01*
X0129500Y0106000D01*
X0129500Y0106433D01*
X0129635Y0107288D01*
X0129903Y0108111D01*
X0130296Y0108883D01*
X0130805Y0109583D01*
X0131417Y0110195D01*
X0132117Y0110704D01*
X0132698Y0111000D01*
X0010200Y0111000D01*
X0010200Y0108933D02*
X0021145Y0108933D01*
X0020200Y0107988D02*
X0020200Y0106000D01*
X0025000Y0106000D01*
X0029800Y0106000D01*
X0029800Y0107988D01*
X0026988Y0110800D01*
X0025000Y0110800D01*
X0025000Y0106000D01*
X0025000Y0106000D01*
X0025000Y0106000D01*
X0029800Y0106000D01*
X0029800Y0104012D01*
X0026988Y0101200D01*
X0025000Y0101200D01*
X0025000Y0106000D01*
X0025000Y0106000D01*
X0025000Y0106000D01*
X0025000Y0110800D01*
X0023012Y0110800D01*
X0020200Y0107988D01*
X0020200Y0106534D02*
X0010200Y0106534D01*
X0010200Y0104136D02*
X0020200Y0104136D01*
X0020200Y0104012D02*
X0023012Y0101200D01*
X0025000Y0101200D01*
X0025000Y0106000D01*
X0020200Y0106000D01*
X0020200Y0104012D01*
X0022474Y0101737D02*
X0010200Y0101737D01*
X0010200Y0099339D02*
X0065156Y0099339D01*
X0067245Y0097250D02*
X0062411Y0097250D01*
X0058750Y0093589D01*
X0058750Y0088411D01*
X0062411Y0084750D01*
X0062900Y0084750D01*
X0062900Y0075405D01*
X0062239Y0074744D01*
X0062282Y0074876D01*
X0062400Y0075622D01*
X0062400Y0076000D01*
X0062400Y0076378D01*
X0062282Y0077124D01*
X0062048Y0077843D01*
X0061705Y0078516D01*
X0061261Y0079127D01*
X0060727Y0079661D01*
X0060116Y0080105D01*
X0059443Y0080448D01*
X0058724Y0080682D01*
X0057978Y0080800D01*
X0055000Y0080800D01*
X0055000Y0076000D01*
X0055000Y0076000D01*
X0062400Y0076000D01*
X0055000Y0076000D01*
X0055000Y0076000D01*
X0055000Y0071200D01*
X0057978Y0071200D01*
X0058724Y0071318D01*
X0058856Y0071361D01*
X0058095Y0070600D01*
X0051485Y0070600D01*
X0049794Y0069900D01*
X0048500Y0068606D01*
X0047800Y0066915D01*
X0047800Y0065085D01*
X0048068Y0064437D01*
X0039783Y0072722D01*
X0039832Y0072771D01*
X0040700Y0074866D01*
X0040700Y0077134D01*
X0039832Y0079229D01*
X0038229Y0080832D01*
X0036134Y0081700D01*
X0033866Y0081700D01*
X0031771Y0080832D01*
X0030168Y0079229D01*
X0030000Y0078824D01*
X0029832Y0079229D01*
X0028229Y0080832D01*
X0026134Y0081700D01*
X0023866Y0081700D01*
X0021771Y0080832D01*
X0020168Y0079229D01*
X0019300Y0077134D01*
X0019300Y0074866D01*
X0020168Y0072771D01*
X0020400Y0072539D01*
X0020400Y0054095D01*
X0021100Y0053394D01*
X0022394Y0052100D01*
X0023095Y0051400D01*
X0026905Y0051400D01*
X0027606Y0052100D01*
X0028900Y0053394D01*
X0029600Y0054095D01*
X0029600Y0072539D01*
X0029832Y0072771D01*
X0030000Y0073176D01*
X0030168Y0072771D01*
X0030400Y0072539D01*
X0030400Y0070085D01*
X0031100Y0068394D01*
X0038895Y0060600D01*
X0038095Y0060600D01*
X0037394Y0059900D01*
X0036100Y0058606D01*
X0035400Y0057905D01*
X0035400Y0054095D01*
X0036100Y0053394D01*
X0046100Y0043394D01*
X0047394Y0042100D01*
X0049085Y0041400D01*
X0058515Y0041400D01*
X0059163Y0041668D01*
X0055595Y0038100D01*
X0054405Y0038100D01*
X0050595Y0038100D01*
X0047900Y0035405D01*
X0047900Y0031595D01*
X0050595Y0028900D01*
X0058415Y0028900D01*
X0060106Y0029600D01*
X0067606Y0037100D01*
X0068900Y0038394D01*
X0069600Y0040085D01*
X0069600Y0049095D01*
X0078068Y0057563D01*
X0077800Y0056915D01*
X0077800Y0055085D01*
X0078500Y0053394D01*
X0079794Y0052100D01*
X0081485Y0051400D01*
X0090915Y0051400D01*
X0092606Y0052100D01*
X0097150Y0056645D01*
X0097150Y0056000D01*
X0102500Y0056000D01*
X0102500Y0056000D01*
X0102500Y0061350D01*
X0104716Y0061350D01*
X0107850Y0058216D01*
X0107850Y0056000D01*
X0102500Y0056000D01*
X0102500Y0056000D01*
X0102500Y0061350D01*
X0101855Y0061350D01*
X0101905Y0061400D01*
X0121905Y0061400D01*
X0122606Y0062100D01*
X0123900Y0063394D01*
X0124600Y0064095D01*
X0124600Y0067905D01*
X0123900Y0068606D01*
X0122606Y0069900D01*
X0122606Y0069900D01*
X0121905Y0070600D01*
X0103439Y0070600D01*
X0106250Y0073411D01*
X0106250Y0078589D01*
X0102589Y0082250D01*
X0097411Y0082250D01*
X0095761Y0080600D01*
X0081485Y0080600D01*
X0079794Y0079900D01*
X0078500Y0078606D01*
X0077800Y0076915D01*
X0077800Y0075085D01*
X0078500Y0073394D01*
X0079794Y0072100D01*
X0081485Y0071400D01*
X0095761Y0071400D01*
X0097328Y0069833D01*
X0096100Y0068606D01*
X0091932Y0064437D01*
X0092200Y0065085D01*
X0092200Y0066915D01*
X0091500Y0068606D01*
X0090206Y0069900D01*
X0088515Y0070600D01*
X0079085Y0070600D01*
X0077394Y0069900D01*
X0077100Y0069605D01*
X0077100Y0079095D01*
X0081905Y0083900D01*
X0093415Y0083900D01*
X0095106Y0084600D01*
X0101050Y0090545D01*
X0101050Y0088500D01*
X0107500Y0088500D01*
X0107500Y0088500D01*
X0107500Y0094950D01*
X0110172Y0094950D01*
X0113950Y0091172D01*
X0113950Y0088500D01*
X0107500Y0088500D01*
X0107500Y0088500D01*
X0107500Y0094950D01*
X0105455Y0094950D01*
X0106400Y0095894D01*
X0107100Y0097585D01*
X0107100Y0106415D01*
X0106400Y0108106D01*
X0105900Y0108606D01*
X0104606Y0109900D01*
X0102915Y0110600D01*
X0101085Y0110600D01*
X0099394Y0109900D01*
X0098100Y0108606D01*
X0097400Y0106915D01*
X0097400Y0099905D01*
X0097100Y0099605D01*
X0097100Y0106415D01*
X0096400Y0108106D01*
X0095900Y0108606D01*
X0094606Y0109900D01*
X0092915Y0110600D01*
X0091085Y0110600D01*
X0089394Y0109900D01*
X0088100Y0108606D01*
X0087400Y0106915D01*
X0087400Y0099905D01*
X0086049Y0098554D01*
X0086600Y0099885D01*
X0086600Y0106915D01*
X0085900Y0108606D01*
X0084606Y0109900D01*
X0082915Y0110600D01*
X0081085Y0110600D01*
X0079394Y0109900D01*
X0078100Y0108606D01*
X0077400Y0106915D01*
X0077400Y0100105D01*
X0067606Y0109900D01*
X0067606Y0109900D01*
X0066905Y0110600D01*
X0063095Y0110600D01*
X0062394Y0109900D01*
X0061100Y0108606D01*
X0060400Y0107905D01*
X0060400Y0104095D01*
X0061100Y0103394D01*
X0067245Y0097250D01*
X0062102Y0096940D02*
X0053181Y0096940D01*
X0052672Y0097450D02*
X0056450Y0093672D01*
X0056450Y0091000D01*
X0050000Y0091000D01*
X0050000Y0091000D01*
X0050000Y0091000D01*
X0050000Y0097450D01*
X0052672Y0097450D01*
X0050000Y0097450D02*
X0047328Y0097450D01*
X0043550Y0093672D01*
X0043550Y0091000D01*
X0050000Y0091000D01*
X0056450Y0091000D01*
X0056450Y0088328D01*
X0052672Y0084550D01*
X0050000Y0084550D01*
X0050000Y0091000D01*
X0050000Y0091000D01*
X0050000Y0091000D01*
X0050000Y0097450D01*
X0050000Y0096940D02*
X0050000Y0096940D01*
X0050000Y0094542D02*
X0050000Y0094542D01*
X0050000Y0092143D02*
X0050000Y0092143D01*
X0050000Y0091000D02*
X0043550Y0091000D01*
X0043550Y0088328D01*
X0047328Y0084550D01*
X0050000Y0084550D01*
X0050000Y0091000D01*
X0050000Y0089745D02*
X0050000Y0089745D01*
X0050000Y0087346D02*
X0050000Y0087346D01*
X0050000Y0084948D02*
X0050000Y0084948D01*
X0046930Y0084948D02*
X0010200Y0084948D01*
X0010200Y0087346D02*
X0044532Y0087346D01*
X0043550Y0089745D02*
X0010200Y0089745D01*
X0010200Y0092143D02*
X0043550Y0092143D01*
X0044420Y0094542D02*
X0010200Y0094542D01*
X0010200Y0096940D02*
X0046819Y0096940D01*
X0055580Y0094542D02*
X0059703Y0094542D01*
X0058750Y0092143D02*
X0056450Y0092143D01*
X0056450Y0089745D02*
X0058750Y0089745D01*
X0059815Y0087346D02*
X0055468Y0087346D01*
X0053070Y0084948D02*
X0062213Y0084948D01*
X0062900Y0082549D02*
X0010200Y0082549D01*
X0010200Y0080151D02*
X0021090Y0080151D01*
X0019556Y0077752D02*
X0010200Y0077752D01*
X0010200Y0075354D02*
X0019300Y0075354D01*
X0020091Y0072955D02*
X0010200Y0072955D01*
X0010200Y0070557D02*
X0020400Y0070557D01*
X0020400Y0068158D02*
X0010200Y0068158D01*
X0010200Y0065760D02*
X0020400Y0065760D01*
X0020400Y0063361D02*
X0010200Y0063361D01*
X0010200Y0060963D02*
X0020400Y0060963D01*
X0020400Y0058564D02*
X0010200Y0058564D01*
X0010200Y0056166D02*
X0020400Y0056166D01*
X0020727Y0053767D02*
X0010200Y0053767D01*
X0010200Y0051369D02*
X0038126Y0051369D01*
X0036100Y0053394D02*
X0036100Y0053394D01*
X0035727Y0053767D02*
X0029273Y0053767D01*
X0029600Y0056166D02*
X0035400Y0056166D01*
X0036059Y0058564D02*
X0029600Y0058564D01*
X0029600Y0060963D02*
X0038532Y0060963D01*
X0037394Y0059900D02*
X0037394Y0059900D01*
X0036100Y0058606D02*
X0036100Y0058606D01*
X0040000Y0056000D02*
X0050000Y0046000D01*
X0055000Y0046000D01*
X0056871Y0039376D02*
X0010200Y0039376D01*
X0010200Y0036978D02*
X0049472Y0036978D01*
X0047900Y0034579D02*
X0010200Y0034579D01*
X0010200Y0032181D02*
X0047900Y0032181D01*
X0049712Y0029782D02*
X0010200Y0029782D01*
X0010200Y0027384D02*
X0049878Y0027384D01*
X0049894Y0027400D02*
X0048600Y0026106D01*
X0043095Y0020600D01*
X0038095Y0020600D01*
X0037394Y0019900D01*
X0036100Y0018606D01*
X0035400Y0017905D01*
X0035400Y0014095D01*
X0036100Y0013394D01*
X0037394Y0012100D01*
X0037394Y0012100D01*
X0038095Y0011400D01*
X0045915Y0011400D01*
X0047606Y0012100D01*
X0054405Y0018900D01*
X0060595Y0018900D01*
X0067394Y0012100D01*
X0069085Y0011400D01*
X0100915Y0011400D01*
X0102606Y0012100D01*
X0103900Y0013394D01*
X0116984Y0026479D01*
X0139990Y0026479D01*
X0140500Y0026268D01*
X0142414Y0026268D01*
X0144182Y0027000D01*
X0145293Y0028111D01*
X0145509Y0027814D01*
X0146066Y0027257D01*
X0146704Y0026793D01*
X0147407Y0026435D01*
X0148157Y0026191D01*
X0148936Y0026068D01*
X0149331Y0026068D01*
X0149725Y0026068D01*
X0150504Y0026191D01*
X0151254Y0026435D01*
X0151957Y0026793D01*
X0152595Y0027257D01*
X0153153Y0027814D01*
X0153617Y0028452D01*
X0153975Y0029155D01*
X0154218Y0029905D01*
X0154342Y0030684D01*
X0154342Y0031079D01*
X0154342Y0031473D01*
X0154218Y0032252D01*
X0153975Y0033002D01*
X0153617Y0033705D01*
X0153153Y0034343D01*
X0152595Y0034901D01*
X0151957Y0035365D01*
X0151254Y0035723D01*
X0150504Y0035966D01*
X0149725Y0036090D01*
X0149331Y0036090D01*
X0149331Y0031079D01*
X0149331Y0031079D01*
X0154342Y0031079D01*
X0149331Y0031079D01*
X0149331Y0031079D01*
X0149331Y0036090D01*
X0148936Y0036090D01*
X0148157Y0035966D01*
X0147407Y0035723D01*
X0146704Y0035365D01*
X0146066Y0034901D01*
X0145509Y0034343D01*
X0145293Y0034046D01*
X0144182Y0035157D01*
X0142414Y0035890D01*
X0140500Y0035890D01*
X0139990Y0035679D01*
X0116184Y0035679D01*
X0116827Y0036321D01*
X0139990Y0036321D01*
X0140500Y0036110D01*
X0142414Y0036110D01*
X0144182Y0036843D01*
X0145394Y0038054D01*
X0146605Y0036843D01*
X0148374Y0036110D01*
X0150288Y0036110D01*
X0152056Y0036843D01*
X0153409Y0038196D01*
X0153620Y0038705D01*
X0153900Y0038985D01*
X0154600Y0040676D01*
X0154600Y0046915D01*
X0153900Y0048606D01*
X0152606Y0049900D01*
X0139600Y0062905D01*
X0139600Y0063256D01*
X0140300Y0064946D01*
X0140300Y0067054D01*
X0139600Y0068744D01*
X0139600Y0081915D01*
X0138900Y0083606D01*
X0137606Y0084900D01*
X0124600Y0097905D01*
X0124600Y0107905D01*
X0123900Y0108606D01*
X0122606Y0109900D01*
X0122606Y0109900D01*
X0121905Y0110600D01*
X0118095Y0110600D01*
X0117394Y0109900D01*
X0116100Y0108606D01*
X0115400Y0107905D01*
X0115400Y0095085D01*
X0116100Y0093394D01*
X0130400Y0079095D01*
X0130400Y0068744D01*
X0129700Y0067054D01*
X0129700Y0064946D01*
X0130400Y0063256D01*
X0130400Y0060085D01*
X0131100Y0058394D01*
X0145400Y0044095D01*
X0145400Y0043794D01*
X0145394Y0043788D01*
X0144182Y0045000D01*
X0142414Y0045732D01*
X0140500Y0045732D01*
X0139990Y0045521D01*
X0119600Y0045521D01*
X0119600Y0053256D01*
X0120300Y0054946D01*
X0120300Y0057054D01*
X0119493Y0059002D01*
X0118002Y0060493D01*
X0116054Y0061300D01*
X0113946Y0061300D01*
X0111998Y0060493D01*
X0110507Y0059002D01*
X0109700Y0057054D01*
X0109700Y0054946D01*
X0110400Y0053256D01*
X0110400Y0042905D01*
X0105595Y0038100D01*
X0090595Y0038100D01*
X0089894Y0037400D01*
X0088600Y0036106D01*
X0087900Y0035405D01*
X0087900Y0031595D01*
X0088600Y0030894D01*
X0089894Y0029600D01*
X0089894Y0029600D01*
X0090595Y0028900D01*
X0096395Y0028900D01*
X0095595Y0028100D01*
X0090595Y0028100D01*
X0089894Y0027400D01*
X0088600Y0026106D01*
X0087900Y0025405D01*
X0087900Y0021595D01*
X0088600Y0020894D01*
X0088895Y0020600D01*
X0071905Y0020600D01*
X0069005Y0023500D01*
X0086905Y0041400D01*
X0100148Y0041400D01*
X0101476Y0040850D01*
X0103524Y0040850D01*
X0105417Y0041634D01*
X0106866Y0043083D01*
X0107650Y0044976D01*
X0107650Y0047024D01*
X0106866Y0048917D01*
X0105417Y0050366D01*
X0104721Y0050655D01*
X0107850Y0053784D01*
X0107850Y0056000D01*
X0102500Y0056000D01*
X0102500Y0056000D01*
X0097150Y0056000D01*
X0097150Y0053784D01*
X0100279Y0050655D01*
X0100148Y0050600D01*
X0081485Y0050600D01*
X0079794Y0049900D01*
X0078500Y0048606D01*
X0077800Y0046915D01*
X0077800Y0045305D01*
X0060595Y0028100D01*
X0050595Y0028100D01*
X0049894Y0027400D01*
X0049894Y0027400D01*
X0047480Y0024985D02*
X0010200Y0024985D01*
X0010200Y0022587D02*
X0045081Y0022587D01*
X0045000Y0016000D02*
X0040000Y0016000D01*
X0036502Y0012993D02*
X0028781Y0012993D01*
X0029800Y0014012D02*
X0026988Y0011200D01*
X0025000Y0011200D01*
X0025000Y0016000D01*
X0025000Y0016000D01*
X0025000Y0020800D01*
X0026988Y0020800D01*
X0029800Y0017988D01*
X0029800Y0016000D01*
X0025000Y0016000D01*
X0025000Y0016000D01*
X0025000Y0016000D01*
X0020200Y0016000D01*
X0020200Y0017988D01*
X0023012Y0020800D01*
X0025000Y0020800D01*
X0025000Y0016000D01*
X0029800Y0016000D01*
X0029800Y0014012D01*
X0029800Y0015391D02*
X0035400Y0015391D01*
X0036100Y0013394D02*
X0036100Y0013394D01*
X0035400Y0017790D02*
X0029800Y0017790D01*
X0027600Y0020188D02*
X0037683Y0020188D01*
X0037394Y0019900D02*
X0037394Y0019900D01*
X0036100Y0018606D02*
X0036100Y0018606D01*
X0045000Y0016000D02*
X0052500Y0023500D01*
X0062500Y0023500D01*
X0070000Y0016000D01*
X0100000Y0016000D01*
X0115079Y0031079D01*
X0141457Y0031079D01*
X0144760Y0034579D02*
X0145744Y0034579D01*
X0146470Y0036978D02*
X0144317Y0036978D01*
X0141457Y0040921D02*
X0115079Y0040921D01*
X0115000Y0041000D01*
X0115000Y0056000D01*
X0109700Y0056166D02*
X0107850Y0056166D01*
X0107833Y0053767D02*
X0110188Y0053767D01*
X0110400Y0051369D02*
X0105435Y0051369D01*
X0106813Y0048970D02*
X0110400Y0048970D01*
X0110400Y0046572D02*
X0107650Y0046572D01*
X0107318Y0044173D02*
X0110400Y0044173D01*
X0109269Y0041775D02*
X0105558Y0041775D01*
X0106871Y0039376D02*
X0084882Y0039376D01*
X0082483Y0036978D02*
X0089472Y0036978D01*
X0089894Y0037400D02*
X0089894Y0037400D01*
X0088600Y0036106D02*
X0088600Y0036106D01*
X0087900Y0034579D02*
X0080085Y0034579D01*
X0077686Y0032181D02*
X0087900Y0032181D01*
X0088600Y0030894D02*
X0088600Y0030894D01*
X0089712Y0029782D02*
X0075288Y0029782D01*
X0072889Y0027384D02*
X0089878Y0027384D01*
X0089894Y0027400D02*
X0089894Y0027400D01*
X0088600Y0026106D02*
X0088600Y0026106D01*
X0087900Y0024985D02*
X0070490Y0024985D01*
X0069919Y0022587D02*
X0087900Y0022587D01*
X0088600Y0020894D02*
X0088600Y0020894D01*
X0092500Y0023500D02*
X0097500Y0023500D01*
X0107500Y0033500D01*
X0115000Y0041000D01*
X0119600Y0046572D02*
X0142923Y0046572D01*
X0145009Y0044173D02*
X0145321Y0044173D01*
X0149331Y0040921D02*
X0150000Y0041591D01*
X0150000Y0046000D01*
X0135000Y0061000D01*
X0135000Y0066000D01*
X0135000Y0081000D01*
X0120000Y0096000D01*
X0120000Y0106000D01*
X0116428Y0108933D02*
X0105572Y0108933D01*
X0105900Y0108606D02*
X0105900Y0108606D01*
X0107050Y0106534D02*
X0115400Y0106534D01*
X0116100Y0108606D02*
X0116100Y0108606D01*
X0117394Y0109900D02*
X0117394Y0109900D01*
X0115400Y0104136D02*
X0107100Y0104136D01*
X0107100Y0101737D02*
X0115400Y0101737D01*
X0115400Y0099339D02*
X0107100Y0099339D01*
X0106833Y0096940D02*
X0115400Y0096940D01*
X0115625Y0094542D02*
X0110580Y0094542D01*
X0112978Y0092143D02*
X0117351Y0092143D01*
X0119750Y0089745D02*
X0113950Y0089745D01*
X0113950Y0088500D02*
X0107500Y0088500D01*
X0107500Y0082050D01*
X0110172Y0082050D01*
X0113950Y0085828D01*
X0113950Y0088500D01*
X0113950Y0087346D02*
X0122148Y0087346D01*
X0124547Y0084948D02*
X0113070Y0084948D01*
X0110671Y0082549D02*
X0126945Y0082549D01*
X0129344Y0080151D02*
X0104688Y0080151D01*
X0104828Y0082050D02*
X0107500Y0082050D01*
X0107500Y0088500D01*
X0107500Y0088500D01*
X0107500Y0088500D01*
X0101050Y0088500D01*
X0101050Y0085828D01*
X0104828Y0082050D01*
X0104329Y0082549D02*
X0080555Y0082549D01*
X0080401Y0080151D02*
X0078156Y0080151D01*
X0078147Y0077752D02*
X0077100Y0077752D01*
X0077100Y0075354D02*
X0077800Y0075354D01*
X0077100Y0072955D02*
X0078939Y0072955D01*
X0078981Y0070557D02*
X0077100Y0070557D01*
X0080000Y0066000D02*
X0085000Y0066000D01*
X0088619Y0070557D02*
X0096604Y0070557D01*
X0095653Y0068158D02*
X0091685Y0068158D01*
X0092200Y0065760D02*
X0093254Y0065760D01*
X0100000Y0066000D02*
X0120000Y0066000D01*
X0123867Y0063361D02*
X0130356Y0063361D01*
X0130400Y0060963D02*
X0116868Y0060963D01*
X0119675Y0058564D02*
X0131030Y0058564D01*
X0133329Y0056166D02*
X0120300Y0056166D01*
X0119812Y0053767D02*
X0135727Y0053767D01*
X0138126Y0051369D02*
X0119600Y0051369D01*
X0119600Y0048970D02*
X0140524Y0048970D01*
X0146340Y0056166D02*
X0152234Y0056166D01*
X0152771Y0054870D02*
X0155170Y0052471D01*
X0158304Y0051173D01*
X0161696Y0051173D01*
X0164830Y0052471D01*
X0167229Y0054870D01*
X0168528Y0058005D01*
X0168528Y0061397D01*
X0167229Y0064531D01*
X0164830Y0066930D01*
X0161696Y0068228D01*
X0158304Y0068228D01*
X0155170Y0066930D01*
X0152771Y0064531D01*
X0151472Y0061397D01*
X0151472Y0058005D01*
X0152771Y0054870D01*
X0153874Y0053767D02*
X0148738Y0053767D01*
X0151137Y0051369D02*
X0157832Y0051369D01*
X0162168Y0051369D02*
X0185501Y0051369D01*
X0185501Y0048970D02*
X0153535Y0048970D01*
X0154600Y0046572D02*
X0185501Y0046572D01*
X0185501Y0044173D02*
X0154600Y0044173D01*
X0154600Y0041775D02*
X0185501Y0041775D01*
X0185501Y0039376D02*
X0154062Y0039376D01*
X0152191Y0036978D02*
X0185501Y0036978D01*
X0185501Y0034579D02*
X0152917Y0034579D01*
X0154230Y0032181D02*
X0185501Y0032181D01*
X0185501Y0029782D02*
X0154178Y0029782D01*
X0152722Y0027384D02*
X0185501Y0027384D01*
X0185501Y0024985D02*
X0115490Y0024985D01*
X0113092Y0022587D02*
X0185501Y0022587D01*
X0185501Y0020188D02*
X0163238Y0020188D01*
X0166569Y0017790D02*
X0185501Y0017790D01*
X0185501Y0015391D02*
X0167949Y0015391D01*
X0168528Y0012993D02*
X0185501Y0012993D01*
X0185501Y0010594D02*
X0168524Y0010594D01*
X0167530Y0008196D02*
X0185501Y0008196D01*
X0156762Y0020188D02*
X0118590Y0020188D01*
X0118583Y0020195D02*
X0117883Y0020704D01*
X0117111Y0021097D01*
X0116288Y0021365D01*
X0115433Y0021500D01*
X0115000Y0021500D01*
X0115000Y0016000D01*
X0115000Y0016000D01*
X0120500Y0016000D01*
X0120500Y0016433D01*
X0120365Y0017288D01*
X0120097Y0018111D01*
X0119704Y0018883D01*
X0119195Y0019583D01*
X0118583Y0020195D01*
X0120202Y0017790D02*
X0153431Y0017790D01*
X0152051Y0015391D02*
X0120472Y0015391D01*
X0120500Y0015567D02*
X0120500Y0016000D01*
X0115000Y0016000D01*
X0115000Y0016000D01*
X0115000Y0016000D01*
X0109500Y0016000D01*
X0109500Y0016433D01*
X0109635Y0017288D01*
X0109903Y0018111D01*
X0110296Y0018883D01*
X0110805Y0019583D01*
X0111417Y0020195D01*
X0112117Y0020704D01*
X0112889Y0021097D01*
X0113712Y0021365D01*
X0114567Y0021500D01*
X0115000Y0021500D01*
X0115000Y0016000D01*
X0115000Y0010500D01*
X0115433Y0010500D01*
X0116288Y0010635D01*
X0117111Y0010903D01*
X0117883Y0011296D01*
X0118583Y0011805D01*
X0119195Y0012417D01*
X0119704Y0013117D01*
X0120097Y0013889D01*
X0120365Y0014712D01*
X0120500Y0015567D01*
X0119613Y0012993D02*
X0151472Y0012993D01*
X0151476Y0010594D02*
X0116027Y0010594D01*
X0115000Y0010594D02*
X0115000Y0010594D01*
X0115000Y0010500D02*
X0115000Y0016000D01*
X0115000Y0016000D01*
X0109500Y0016000D01*
X0109500Y0015567D01*
X0109635Y0014712D01*
X0109903Y0013889D01*
X0110296Y0013117D01*
X0110805Y0012417D01*
X0111417Y0011805D01*
X0112117Y0011296D01*
X0112889Y0010903D01*
X0113712Y0010635D01*
X0114567Y0010500D01*
X0115000Y0010500D01*
X0113973Y0010594D02*
X0010200Y0010594D01*
X0010200Y0008196D02*
X0152470Y0008196D01*
X0149331Y0026068D02*
X0149331Y0031079D01*
X0149331Y0031079D01*
X0149331Y0026068D01*
X0149331Y0027384D02*
X0149331Y0027384D01*
X0149331Y0029782D02*
X0149331Y0029782D01*
X0149331Y0032181D02*
X0149331Y0032181D01*
X0149331Y0034579D02*
X0149331Y0034579D01*
X0145939Y0027384D02*
X0144565Y0027384D01*
X0166126Y0053767D02*
X0185501Y0053767D01*
X0185501Y0056166D02*
X0167766Y0056166D01*
X0168528Y0058564D02*
X0185501Y0058564D01*
X0185501Y0060963D02*
X0168528Y0060963D01*
X0167714Y0063361D02*
X0185501Y0063361D01*
X0185501Y0065760D02*
X0166001Y0065760D01*
X0161865Y0068158D02*
X0185501Y0068158D01*
X0177592Y0073500D02*
X0167408Y0073500D01*
X0167800Y0074446D01*
X0167800Y0076554D01*
X0166993Y0078502D01*
X0165502Y0079993D01*
X0163554Y0080800D01*
X0161446Y0080800D01*
X0159498Y0079993D01*
X0158007Y0078502D01*
X0157200Y0076554D01*
X0157200Y0074446D01*
X0157592Y0073500D01*
X0147500Y0073500D01*
X0147500Y0114495D01*
X0147900Y0114095D01*
X0147900Y0102585D01*
X0148600Y0100894D01*
X0160400Y0089094D01*
X0161694Y0087800D01*
X0163385Y0087100D01*
X0169039Y0087100D01*
X0169271Y0086868D01*
X0171366Y0086000D01*
X0173634Y0086000D01*
X0175729Y0086868D01*
X0177332Y0088471D01*
X0178200Y0090566D01*
X0178200Y0092834D01*
X0177332Y0094929D01*
X0175729Y0096532D01*
X0173634Y0097400D01*
X0171366Y0097400D01*
X0169271Y0096532D01*
X0169039Y0096300D01*
X0166205Y0096300D01*
X0157100Y0105405D01*
X0157100Y0112395D01*
X0166800Y0102695D01*
X0166800Y0102366D01*
X0167668Y0100271D01*
X0169271Y0098668D01*
X0171366Y0097800D01*
X0173634Y0097800D01*
X0175729Y0098668D01*
X0177332Y0100271D01*
X0178200Y0102366D01*
X0178200Y0104634D01*
X0177332Y0106729D01*
X0175729Y0108332D01*
X0173634Y0109200D01*
X0173305Y0109200D01*
X0172905Y0109600D01*
X0173634Y0109600D01*
X0175729Y0110468D01*
X0177332Y0112071D01*
X0178200Y0114166D01*
X0178200Y0116434D01*
X0177332Y0118529D01*
X0177100Y0118761D01*
X0177100Y0134415D01*
X0176400Y0136106D01*
X0140106Y0172400D01*
X0139802Y0172525D01*
X0141724Y0173322D01*
X0144115Y0175713D01*
X0145409Y0178837D01*
X0145409Y0182218D01*
X0144115Y0185342D01*
X0141724Y0187734D01*
X0138600Y0189028D01*
X0135219Y0189028D01*
X0135004Y0188939D01*
X0134043Y0189900D01*
X0132352Y0190600D01*
X0113095Y0190600D01*
X0112394Y0189900D01*
X0111100Y0188606D01*
X0110400Y0187905D01*
X0110400Y0184095D01*
X0111100Y0183394D01*
X0112394Y0182100D01*
X0112394Y0182100D01*
X0113095Y0181400D01*
X0128409Y0181400D01*
X0128409Y0178837D01*
X0129703Y0175713D01*
X0132095Y0173322D01*
X0132630Y0173100D01*
X0118888Y0173100D01*
X0119800Y0174012D01*
X0119800Y0176000D01*
X0119800Y0177988D01*
X0116988Y0180800D01*
X0115000Y0180800D01*
X0115000Y0176000D01*
X0115000Y0176000D01*
X0119800Y0176000D01*
X0115000Y0176000D01*
X0115000Y0176000D01*
X0115000Y0176000D01*
X0110200Y0176000D01*
X0110200Y0177988D01*
X0113012Y0180800D01*
X0115000Y0180800D01*
X0115000Y0176000D01*
X0110200Y0176000D01*
X0110200Y0174012D01*
X0111112Y0173100D01*
X0051506Y0173100D01*
X0049816Y0172400D01*
X0046573Y0169157D01*
X0046331Y0169157D01*
X0043535Y0166362D01*
X0043535Y0165820D01*
X0043236Y0166120D01*
X0043236Y0166362D01*
X0040441Y0169157D01*
X0037163Y0169157D01*
X0064405Y0196400D01*
X0119772Y0196400D01*
X0119861Y0196185D01*
X0122252Y0193794D01*
X0125376Y0192500D01*
X0128758Y0192500D01*
X0131882Y0193794D01*
X0134273Y0196185D01*
X0135567Y0199309D01*
X0135567Y0202691D01*
X0134273Y0205815D01*
X0131882Y0208206D01*
X0128758Y0209500D01*
X0125376Y0209500D01*
X0122252Y0208206D01*
X0119861Y0205815D01*
X0119772Y0205600D01*
X0061585Y0205600D01*
X0059894Y0204900D01*
X0058600Y0203606D01*
X0026100Y0171106D01*
X0025400Y0169415D01*
X0025400Y0160531D01*
X0021608Y0160531D01*
X0018105Y0159080D01*
X0015424Y0156399D01*
X0013973Y0152896D01*
X0013973Y0149104D01*
X0015424Y0145601D01*
X0018105Y0142920D01*
X0021608Y0141469D01*
X0025400Y0141469D01*
X0028903Y0142920D01*
X0031584Y0145601D01*
X0033035Y0149104D01*
X0033035Y0151904D01*
X0033967Y0151518D01*
X0036316Y0151518D01*
X0036488Y0151346D01*
X0040441Y0151346D01*
X0042720Y0153625D01*
X0042951Y0153394D01*
X0044245Y0152100D01*
X0045935Y0151400D01*
X0083095Y0151400D01*
X0087900Y0146595D01*
X0087900Y0143322D01*
X0087400Y0142115D01*
X0087400Y0135085D01*
X0088100Y0133394D01*
X0089394Y0132100D01*
X0091085Y0131400D01*
X0092915Y0131400D01*
X0094606Y0132100D01*
X0095900Y0133394D01*
X0096400Y0133894D01*
X0097100Y0135585D01*
X0097100Y0149415D01*
X0096400Y0151106D01*
X0095106Y0152400D01*
X0087606Y0159900D01*
X0085915Y0160600D01*
X0051269Y0160600D01*
X0053079Y0162409D01*
X0053079Y0162652D01*
X0054327Y0163900D01*
X0123928Y0163900D01*
X0122252Y0163206D01*
X0119861Y0160815D01*
X0118567Y0157691D01*
X0118567Y0154309D01*
X0119861Y0151185D01*
X0122252Y0148794D01*
X0125376Y0147500D01*
X0128758Y0147500D01*
X0131882Y0148794D01*
X0134273Y0151185D01*
X0134362Y0151400D01*
X0138095Y0151400D01*
X0150400Y0139095D01*
X0150400Y0124605D01*
X0150106Y0124900D01*
X0148415Y0125600D01*
X0054405Y0125600D01*
X0047163Y0132843D01*
X0050284Y0132843D01*
X0053079Y0135638D01*
X0053079Y0139591D01*
X0050284Y0142386D01*
X0046331Y0142386D01*
X0043535Y0139591D01*
X0043535Y0136470D01*
X0043236Y0136769D01*
X0043236Y0139591D01*
X0041220Y0141607D01*
X0043436Y0143823D01*
X0043436Y0145882D01*
X0043436Y0147941D01*
X0040524Y0150854D01*
X0038465Y0150854D01*
X0038465Y0145882D01*
X0043436Y0145882D01*
X0038465Y0145882D01*
X0038465Y0145882D01*
X0038464Y0145882D01*
X0038464Y0145882D01*
X0033493Y0145882D01*
X0033493Y0147941D01*
X0036405Y0150854D01*
X0038464Y0150854D01*
X0038464Y0145882D01*
X0033493Y0145882D01*
X0033493Y0143823D01*
X0035709Y0141607D01*
X0033693Y0139591D01*
X0033693Y0135638D01*
X0033865Y0135466D01*
X0033865Y0134120D01*
X0034565Y0132430D01*
X0048600Y0118394D01*
X0049894Y0117100D01*
X0051585Y0116400D01*
X0145595Y0116400D01*
X0145995Y0116000D01*
X0010200Y0116000D01*
X0010200Y0222011D01*
X0185501Y0222011D01*
X0185501Y0208450D01*
X0184860Y0208820D01*
X0183806Y0209256D01*
X0182705Y0209551D01*
X0182054Y0209637D01*
X0182054Y0202050D01*
X0179954Y0202050D01*
X0179954Y0209637D01*
X0179303Y0209551D01*
X0178201Y0209256D01*
X0177148Y0208820D01*
X0176160Y0208249D01*
X0175255Y0207555D01*
X0174449Y0206749D01*
X0173755Y0205844D01*
X0173184Y0204856D01*
X0172748Y0203803D01*
X0172453Y0202701D01*
X0172367Y0202050D01*
X0179954Y0202050D01*
X0179954Y0199950D01*
X0182054Y0199950D01*
X0182054Y0192363D01*
X0182705Y0192449D01*
X0183806Y0192744D01*
X0184860Y0193180D01*
X0185501Y0193550D01*
X0185501Y0163450D01*
X0184860Y0163820D01*
X0183806Y0164256D01*
X0182705Y0164551D01*
X0182054Y0164637D01*
X0182054Y0157050D01*
X0179954Y0157050D01*
X0179954Y0164637D01*
X0179303Y0164551D01*
X0178201Y0164256D01*
X0177148Y0163820D01*
X0176160Y0163249D01*
X0175255Y0162555D01*
X0174449Y0161749D01*
X0173755Y0160844D01*
X0173184Y0159856D01*
X0172748Y0158803D01*
X0172453Y0157701D01*
X0172367Y0157050D01*
X0179954Y0157050D01*
X0179954Y0154950D01*
X0182054Y0154950D01*
X0182054Y0147363D01*
X0182705Y0147449D01*
X0183806Y0147744D01*
X0184860Y0148180D01*
X0185501Y0148550D01*
X0185501Y0135994D01*
X0183554Y0136800D01*
X0181446Y0136800D01*
X0179498Y0135993D01*
X0178007Y0134502D01*
X0177200Y0132554D01*
X0177200Y0130446D01*
X0178007Y0128498D01*
X0179498Y0127007D01*
X0181446Y0126200D01*
X0183554Y0126200D01*
X0185501Y0127006D01*
X0185501Y0079994D01*
X0183554Y0080800D01*
X0181446Y0080800D01*
X0179498Y0079993D01*
X0178007Y0078502D01*
X0177200Y0076554D01*
X0177200Y0074446D01*
X0177592Y0073500D01*
X0177200Y0075354D02*
X0167800Y0075354D01*
X0167304Y0077752D02*
X0177696Y0077752D01*
X0179879Y0080151D02*
X0165121Y0080151D01*
X0159879Y0080151D02*
X0147500Y0080151D01*
X0147500Y0082549D02*
X0185501Y0082549D01*
X0185501Y0080151D02*
X0185121Y0080151D01*
X0185501Y0084948D02*
X0147500Y0084948D01*
X0147500Y0087346D02*
X0162790Y0087346D01*
X0159750Y0089745D02*
X0147500Y0089745D01*
X0147500Y0092143D02*
X0157351Y0092143D01*
X0154953Y0094542D02*
X0147500Y0094542D01*
X0147500Y0096940D02*
X0152554Y0096940D01*
X0150156Y0099339D02*
X0147500Y0099339D01*
X0147500Y0101737D02*
X0148251Y0101737D01*
X0147900Y0104136D02*
X0147500Y0104136D01*
X0147500Y0106534D02*
X0147900Y0106534D01*
X0147900Y0108933D02*
X0147500Y0108933D01*
X0147500Y0111332D02*
X0147900Y0111332D01*
X0147900Y0113730D02*
X0147500Y0113730D01*
X0145866Y0116129D02*
X0010200Y0116129D01*
X0010200Y0118527D02*
X0048468Y0118527D01*
X0046069Y0120926D02*
X0010200Y0120926D01*
X0010200Y0123324D02*
X0043671Y0123324D01*
X0041272Y0125723D02*
X0010200Y0125723D01*
X0010200Y0128121D02*
X0038874Y0128121D01*
X0036475Y0130520D02*
X0010200Y0130520D01*
X0010200Y0132918D02*
X0034363Y0132918D01*
X0033865Y0135317D02*
X0010200Y0135317D01*
X0010200Y0137715D02*
X0033693Y0137715D01*
X0034216Y0140114D02*
X0010200Y0140114D01*
X0010200Y0142512D02*
X0019090Y0142512D01*
X0016115Y0144911D02*
X0010200Y0144911D01*
X0010200Y0147309D02*
X0014717Y0147309D01*
X0013973Y0149708D02*
X0010200Y0149708D01*
X0010200Y0152106D02*
X0013973Y0152106D01*
X0014640Y0154505D02*
X0010200Y0154505D01*
X0010200Y0156903D02*
X0015929Y0156903D01*
X0018641Y0159302D02*
X0010200Y0159302D01*
X0010200Y0161700D02*
X0025400Y0161700D01*
X0025400Y0160531D02*
X0025400Y0160531D01*
X0025400Y0164099D02*
X0010200Y0164099D01*
X0010200Y0166497D02*
X0025400Y0166497D01*
X0025400Y0168896D02*
X0010200Y0168896D01*
X0010200Y0171294D02*
X0026289Y0171294D01*
X0028687Y0173693D02*
X0010200Y0173693D01*
X0010200Y0176091D02*
X0031086Y0176091D01*
X0033484Y0178490D02*
X0010200Y0178490D01*
X0010200Y0180888D02*
X0035883Y0180888D01*
X0038281Y0183287D02*
X0010200Y0183287D01*
X0010200Y0185685D02*
X0040680Y0185685D01*
X0043079Y0188084D02*
X0010200Y0188084D01*
X0010200Y0190482D02*
X0045477Y0190482D01*
X0047876Y0192881D02*
X0010200Y0192881D01*
X0010200Y0195279D02*
X0050274Y0195279D01*
X0052673Y0197678D02*
X0010200Y0197678D01*
X0010200Y0200076D02*
X0055071Y0200076D01*
X0057470Y0202475D02*
X0010200Y0202475D01*
X0010200Y0204873D02*
X0059868Y0204873D01*
X0062500Y0201000D02*
X0127067Y0201000D01*
X0132816Y0207272D02*
X0174972Y0207272D01*
X0173194Y0204873D02*
X0134663Y0204873D01*
X0135567Y0202475D02*
X0172423Y0202475D01*
X0172367Y0199950D02*
X0172453Y0199299D01*
X0172748Y0198197D01*
X0173184Y0197144D01*
X0173755Y0196156D01*
X0174449Y0195251D01*
X0175255Y0194445D01*
X0176160Y0193751D01*
X0177148Y0193180D01*
X0178201Y0192744D01*
X0179303Y0192449D01*
X0179954Y0192363D01*
X0179954Y0199950D01*
X0172367Y0199950D01*
X0172963Y0197678D02*
X0134891Y0197678D01*
X0135567Y0200076D02*
X0179954Y0200076D01*
X0179954Y0197678D02*
X0182054Y0197678D01*
X0182054Y0195279D02*
X0179954Y0195279D01*
X0179954Y0192881D02*
X0182054Y0192881D01*
X0184137Y0192881D02*
X0185501Y0192881D01*
X0185501Y0190482D02*
X0132636Y0190482D01*
X0129677Y0192881D02*
X0177871Y0192881D01*
X0174427Y0195279D02*
X0133367Y0195279D01*
X0140878Y0188084D02*
X0185501Y0188084D01*
X0185501Y0185685D02*
X0143772Y0185685D01*
X0144967Y0183287D02*
X0185501Y0183287D01*
X0185501Y0180888D02*
X0145409Y0180888D01*
X0145266Y0178490D02*
X0185501Y0178490D01*
X0185501Y0176091D02*
X0144272Y0176091D01*
X0142096Y0173693D02*
X0185501Y0173693D01*
X0185501Y0171294D02*
X0141211Y0171294D01*
X0137500Y0168500D02*
X0052421Y0168500D01*
X0048307Y0164386D01*
X0052370Y0161700D02*
X0120746Y0161700D01*
X0119234Y0159302D02*
X0088204Y0159302D01*
X0090602Y0156903D02*
X0118567Y0156903D01*
X0118567Y0154505D02*
X0093001Y0154505D01*
X0095399Y0152106D02*
X0119479Y0152106D01*
X0121338Y0149708D02*
X0096979Y0149708D01*
X0097100Y0147309D02*
X0142185Y0147309D01*
X0139787Y0149708D02*
X0132795Y0149708D01*
X0127067Y0156000D02*
X0140000Y0156000D01*
X0155000Y0141000D01*
X0155000Y0121000D01*
X0172500Y0103500D01*
X0168600Y0099339D02*
X0163166Y0099339D01*
X0160768Y0101737D02*
X0167060Y0101737D01*
X0165359Y0104136D02*
X0158369Y0104136D01*
X0157100Y0106534D02*
X0162960Y0106534D01*
X0160562Y0108933D02*
X0157100Y0108933D01*
X0157100Y0111332D02*
X0158163Y0111332D01*
X0152500Y0116000D02*
X0152500Y0103500D01*
X0164300Y0091700D01*
X0172500Y0091700D01*
X0170257Y0096940D02*
X0165565Y0096940D01*
X0174743Y0096940D02*
X0185501Y0096940D01*
X0185501Y0094542D02*
X0177492Y0094542D01*
X0178200Y0092143D02*
X0185501Y0092143D01*
X0185501Y0089745D02*
X0177860Y0089745D01*
X0176207Y0087346D02*
X0185501Y0087346D01*
X0185501Y0099339D02*
X0176400Y0099339D01*
X0177940Y0101737D02*
X0185501Y0101737D01*
X0185501Y0104136D02*
X0178200Y0104136D01*
X0177413Y0106534D02*
X0185501Y0106534D01*
X0185501Y0108933D02*
X0174278Y0108933D01*
X0176593Y0111332D02*
X0185501Y0111332D01*
X0185501Y0113730D02*
X0178019Y0113730D01*
X0178200Y0116129D02*
X0185501Y0116129D01*
X0185501Y0118527D02*
X0177333Y0118527D01*
X0177100Y0120926D02*
X0185501Y0120926D01*
X0185501Y0123324D02*
X0177100Y0123324D01*
X0177100Y0125723D02*
X0185501Y0125723D01*
X0178384Y0128121D02*
X0177100Y0128121D01*
X0177100Y0130520D02*
X0177200Y0130520D01*
X0177100Y0132918D02*
X0177351Y0132918D01*
X0176727Y0135317D02*
X0178821Y0135317D01*
X0174790Y0137715D02*
X0185501Y0137715D01*
X0185501Y0140114D02*
X0172392Y0140114D01*
X0169993Y0142512D02*
X0185501Y0142512D01*
X0185501Y0144911D02*
X0167595Y0144911D01*
X0165196Y0147309D02*
X0185501Y0147309D01*
X0182054Y0149708D02*
X0179954Y0149708D01*
X0179954Y0147363D02*
X0179954Y0154950D01*
X0172367Y0154950D01*
X0172453Y0154299D01*
X0172748Y0153197D01*
X0173184Y0152144D01*
X0173755Y0151156D01*
X0174449Y0150251D01*
X0175255Y0149445D01*
X0176160Y0148751D01*
X0177148Y0148180D01*
X0178201Y0147744D01*
X0179303Y0147449D01*
X0179954Y0147363D01*
X0179954Y0152106D02*
X0182054Y0152106D01*
X0182054Y0154505D02*
X0179954Y0154505D01*
X0179954Y0156903D02*
X0155602Y0156903D01*
X0158001Y0154505D02*
X0172426Y0154505D01*
X0173206Y0152106D02*
X0160399Y0152106D01*
X0162798Y0149708D02*
X0174993Y0149708D01*
X0172955Y0159302D02*
X0153204Y0159302D01*
X0150805Y0161700D02*
X0174412Y0161700D01*
X0177822Y0164099D02*
X0148407Y0164099D01*
X0146008Y0166497D02*
X0185501Y0166497D01*
X0185501Y0164099D02*
X0184186Y0164099D01*
X0182054Y0164099D02*
X0179954Y0164099D01*
X0179954Y0161700D02*
X0182054Y0161700D01*
X0182054Y0159302D02*
X0179954Y0159302D01*
X0185501Y0168896D02*
X0143610Y0168896D01*
X0137500Y0168500D02*
X0172500Y0133500D01*
X0172500Y0115300D01*
X0152500Y0116000D02*
X0147500Y0121000D01*
X0052500Y0121000D01*
X0038465Y0135035D01*
X0038465Y0137614D01*
X0043236Y0137715D02*
X0043535Y0137715D01*
X0044058Y0140114D02*
X0042713Y0140114D01*
X0042126Y0142512D02*
X0077379Y0142512D01*
X0077318Y0142324D02*
X0077200Y0141578D01*
X0077200Y0136000D01*
X0082000Y0136000D01*
X0086800Y0136000D01*
X0086800Y0141578D01*
X0086682Y0142324D01*
X0086448Y0143043D01*
X0086105Y0143716D01*
X0085661Y0144327D01*
X0085127Y0144861D01*
X0084516Y0145305D01*
X0083843Y0145648D01*
X0083124Y0145882D01*
X0082378Y0146000D01*
X0082000Y0146000D01*
X0082000Y0136000D01*
X0082000Y0136000D01*
X0082000Y0136000D01*
X0086800Y0136000D01*
X0086800Y0135622D01*
X0086682Y0134876D01*
X0086448Y0134157D01*
X0086105Y0133484D01*
X0085661Y0132873D01*
X0085127Y0132339D01*
X0084516Y0131895D01*
X0083843Y0131552D01*
X0083124Y0131318D01*
X0082378Y0131200D01*
X0082000Y0131200D01*
X0082000Y0136000D01*
X0082000Y0136000D01*
X0082000Y0136000D01*
X0082000Y0146000D01*
X0081622Y0146000D01*
X0080876Y0145882D01*
X0080157Y0145648D01*
X0079484Y0145305D01*
X0078873Y0144861D01*
X0078339Y0144327D01*
X0077895Y0143716D01*
X0077552Y0143043D01*
X0077318Y0142324D01*
X0077200Y0140114D02*
X0052556Y0140114D01*
X0053079Y0137715D02*
X0077200Y0137715D01*
X0077200Y0136000D02*
X0077200Y0135622D01*
X0077318Y0134876D01*
X0077552Y0134157D01*
X0077895Y0133484D01*
X0078339Y0132873D01*
X0078873Y0132339D01*
X0079484Y0131895D01*
X0080157Y0131552D01*
X0080876Y0131318D01*
X0081622Y0131200D01*
X0082000Y0131200D01*
X0082000Y0136000D01*
X0077200Y0136000D01*
X0077248Y0135317D02*
X0052758Y0135317D01*
X0050359Y0132918D02*
X0078306Y0132918D01*
X0082000Y0132918D02*
X0082000Y0132918D01*
X0082000Y0135317D02*
X0082000Y0135317D01*
X0082000Y0137715D02*
X0082000Y0137715D01*
X0082000Y0140114D02*
X0082000Y0140114D01*
X0082000Y0142512D02*
X0082000Y0142512D01*
X0082000Y0144911D02*
X0082000Y0144911D01*
X0078941Y0144911D02*
X0043436Y0144911D01*
X0043436Y0147309D02*
X0087185Y0147309D01*
X0087900Y0144911D02*
X0085059Y0144911D01*
X0086621Y0142512D02*
X0087565Y0142512D01*
X0087400Y0140114D02*
X0086800Y0140114D01*
X0086800Y0137715D02*
X0087400Y0137715D01*
X0087400Y0135317D02*
X0086752Y0135317D01*
X0085694Y0132918D02*
X0088576Y0132918D01*
X0092000Y0136000D02*
X0092500Y0136500D01*
X0092500Y0148500D01*
X0085000Y0156000D01*
X0046850Y0156000D01*
X0038465Y0164386D01*
X0040703Y0168896D02*
X0046069Y0168896D01*
X0043670Y0166497D02*
X0043101Y0166497D01*
X0039300Y0171294D02*
X0048710Y0171294D01*
X0044097Y0176091D02*
X0110200Y0176091D01*
X0110519Y0173693D02*
X0041698Y0173693D01*
X0046495Y0178490D02*
X0110702Y0178490D01*
X0115000Y0178490D02*
X0115000Y0178490D01*
X0115000Y0176091D02*
X0115000Y0176091D01*
X0119800Y0176091D02*
X0129547Y0176091D01*
X0128553Y0178490D02*
X0119298Y0178490D01*
X0119481Y0173693D02*
X0131723Y0173693D01*
X0128409Y0180888D02*
X0048894Y0180888D01*
X0051292Y0183287D02*
X0070925Y0183287D01*
X0070200Y0184012D02*
X0073012Y0181200D01*
X0075000Y0181200D01*
X0076988Y0181200D01*
X0079800Y0184012D01*
X0079800Y0186000D01*
X0079800Y0187988D01*
X0076988Y0190800D01*
X0075000Y0190800D01*
X0075000Y0186000D01*
X0079800Y0186000D01*
X0075000Y0186000D01*
X0075000Y0186000D01*
X0075000Y0186000D01*
X0075000Y0181200D01*
X0075000Y0186000D01*
X0075000Y0186000D01*
X0075000Y0186000D01*
X0070200Y0186000D01*
X0070200Y0187988D01*
X0073012Y0190800D01*
X0075000Y0190800D01*
X0075000Y0186000D01*
X0070200Y0186000D01*
X0070200Y0184012D01*
X0070200Y0185685D02*
X0053691Y0185685D01*
X0056089Y0188084D02*
X0070296Y0188084D01*
X0072694Y0190482D02*
X0058488Y0190482D01*
X0060886Y0192881D02*
X0124457Y0192881D01*
X0120767Y0195279D02*
X0063285Y0195279D01*
X0062500Y0201000D02*
X0030000Y0168500D01*
X0030000Y0161000D01*
X0034882Y0156118D01*
X0038465Y0156118D01*
X0041201Y0152106D02*
X0044239Y0152106D01*
X0041670Y0149708D02*
X0084787Y0149708D01*
X0097100Y0144911D02*
X0099205Y0144911D01*
X0099394Y0145100D02*
X0098100Y0143806D01*
X0097400Y0142115D01*
X0097400Y0135085D01*
X0098100Y0133394D01*
X0099394Y0132100D01*
X0101085Y0131400D01*
X0102915Y0131400D01*
X0104606Y0132100D01*
X0105900Y0133394D01*
X0106600Y0135085D01*
X0106600Y0142115D01*
X0105900Y0143806D01*
X0104606Y0145100D01*
X0102915Y0145800D01*
X0101085Y0145800D01*
X0099394Y0145100D01*
X0097565Y0142512D02*
X0097100Y0142512D01*
X0097100Y0140114D02*
X0097400Y0140114D01*
X0097400Y0137715D02*
X0097100Y0137715D01*
X0096989Y0135317D02*
X0097400Y0135317D01*
X0098576Y0132918D02*
X0095423Y0132918D01*
X0105423Y0132918D02*
X0111576Y0132918D01*
X0111100Y0133394D02*
X0112394Y0132100D01*
X0112394Y0132100D01*
X0113095Y0131400D01*
X0129419Y0131400D01*
X0129703Y0130713D01*
X0132095Y0128322D01*
X0135219Y0127028D01*
X0138600Y0127028D01*
X0141724Y0128322D01*
X0144115Y0130713D01*
X0145409Y0133837D01*
X0145409Y0137218D01*
X0144115Y0140342D01*
X0141724Y0142734D01*
X0138600Y0144028D01*
X0135219Y0144028D01*
X0132095Y0142734D01*
X0129961Y0140600D01*
X0114085Y0140600D01*
X0113095Y0140600D01*
X0112394Y0139900D01*
X0111100Y0138606D01*
X0110400Y0137905D01*
X0110400Y0134095D01*
X0111100Y0133394D01*
X0111100Y0133394D01*
X0110400Y0135317D02*
X0106600Y0135317D01*
X0106600Y0137715D02*
X0110400Y0137715D01*
X0111100Y0138606D02*
X0111100Y0138606D01*
X0112394Y0139900D02*
X0112394Y0139900D01*
X0112608Y0140114D02*
X0106600Y0140114D01*
X0106435Y0142512D02*
X0131873Y0142512D01*
X0136437Y0136000D02*
X0115000Y0136000D01*
X0104795Y0144911D02*
X0144584Y0144911D01*
X0146982Y0142512D02*
X0141946Y0142512D01*
X0144210Y0140114D02*
X0149381Y0140114D01*
X0150400Y0137715D02*
X0145204Y0137715D01*
X0145409Y0135317D02*
X0150400Y0135317D01*
X0150400Y0132918D02*
X0145029Y0132918D01*
X0143922Y0130520D02*
X0150400Y0130520D01*
X0150400Y0128121D02*
X0141240Y0128121D01*
X0136909Y0135528D02*
X0136437Y0136000D01*
X0129897Y0130520D02*
X0049486Y0130520D01*
X0051884Y0128121D02*
X0132579Y0128121D01*
X0130333Y0108933D02*
X0123572Y0108933D01*
X0123900Y0108606D02*
X0123900Y0108606D01*
X0124600Y0106534D02*
X0129516Y0106534D01*
X0129500Y0106000D02*
X0129500Y0105567D01*
X0129635Y0104712D01*
X0129903Y0103889D01*
X0130296Y0103117D01*
X0130805Y0102417D01*
X0131417Y0101805D01*
X0132117Y0101296D01*
X0132889Y0100903D01*
X0133712Y0100635D01*
X0134567Y0100500D01*
X0135000Y0100500D01*
X0135433Y0100500D01*
X0136288Y0100635D01*
X0137111Y0100903D01*
X0137883Y0101296D01*
X0138583Y0101805D01*
X0139195Y0102417D01*
X0139704Y0103117D01*
X0140097Y0103889D01*
X0140365Y0104712D01*
X0140500Y0105567D01*
X0140500Y0106000D01*
X0135000Y0106000D01*
X0135000Y0100500D01*
X0135000Y0106000D01*
X0135000Y0106000D01*
X0129500Y0106000D01*
X0129823Y0104136D02*
X0124600Y0104136D01*
X0124600Y0101737D02*
X0131510Y0101737D01*
X0135000Y0101737D02*
X0135000Y0101737D01*
X0135000Y0104136D02*
X0135000Y0104136D01*
X0138490Y0101737D02*
X0142500Y0101737D01*
X0142500Y0099339D02*
X0124600Y0099339D01*
X0125565Y0096940D02*
X0142500Y0096940D01*
X0142500Y0094542D02*
X0127963Y0094542D01*
X0130362Y0092143D02*
X0142500Y0092143D01*
X0142500Y0089745D02*
X0132760Y0089745D01*
X0135159Y0087346D02*
X0142500Y0087346D01*
X0142500Y0084948D02*
X0137557Y0084948D01*
X0139337Y0082549D02*
X0142500Y0082549D01*
X0142500Y0080151D02*
X0139600Y0080151D01*
X0139600Y0077752D02*
X0142500Y0077752D01*
X0142500Y0075354D02*
X0139600Y0075354D01*
X0139600Y0072955D02*
X0142500Y0072955D01*
X0142500Y0070557D02*
X0139600Y0070557D01*
X0139843Y0068158D02*
X0158135Y0068158D01*
X0153999Y0065760D02*
X0140300Y0065760D01*
X0139644Y0063361D02*
X0152286Y0063361D01*
X0151472Y0060963D02*
X0141543Y0060963D01*
X0143941Y0058564D02*
X0151472Y0058564D01*
X0147500Y0075354D02*
X0157200Y0075354D01*
X0157696Y0077752D02*
X0147500Y0077752D01*
X0130400Y0077752D02*
X0106250Y0077752D01*
X0106250Y0075354D02*
X0130400Y0075354D01*
X0130400Y0072955D02*
X0105794Y0072955D01*
X0100000Y0076000D02*
X0085000Y0076000D01*
X0080000Y0066000D02*
X0065000Y0051000D01*
X0065000Y0041000D01*
X0057500Y0033500D01*
X0052500Y0033500D01*
X0048180Y0041775D02*
X0010200Y0041775D01*
X0010200Y0044173D02*
X0045321Y0044173D01*
X0042923Y0046572D02*
X0010200Y0046572D01*
X0010200Y0048970D02*
X0040524Y0048970D01*
X0050000Y0056000D02*
X0055000Y0056000D01*
X0062500Y0056000D01*
X0072500Y0066000D01*
X0072500Y0081000D01*
X0080000Y0088500D01*
X0092500Y0088500D01*
X0102500Y0098500D01*
X0102500Y0105500D01*
X0102000Y0106000D01*
X0098428Y0108933D02*
X0095572Y0108933D01*
X0095900Y0108606D02*
X0095900Y0108606D01*
X0097050Y0106534D02*
X0097400Y0106534D01*
X0097400Y0104136D02*
X0097100Y0104136D01*
X0097100Y0101737D02*
X0097400Y0101737D01*
X0092500Y0098500D02*
X0092500Y0105500D01*
X0092000Y0106000D01*
X0088428Y0108933D02*
X0085572Y0108933D01*
X0086600Y0106534D02*
X0087400Y0106534D01*
X0087400Y0104136D02*
X0086600Y0104136D01*
X0086600Y0101737D02*
X0087400Y0101737D01*
X0086834Y0099339D02*
X0086374Y0099339D01*
X0087500Y0093500D02*
X0092500Y0098500D01*
X0087500Y0093500D02*
X0077500Y0093500D01*
X0065000Y0106000D01*
X0061428Y0108933D02*
X0028855Y0108933D01*
X0029800Y0106534D02*
X0060400Y0106534D01*
X0061100Y0108606D02*
X0061100Y0108606D01*
X0062394Y0109900D02*
X0062394Y0109900D01*
X0060400Y0104136D02*
X0029800Y0104136D01*
X0027526Y0101737D02*
X0062757Y0101737D01*
X0061100Y0103394D02*
X0061100Y0103394D01*
X0068572Y0108933D02*
X0078428Y0108933D01*
X0077400Y0106534D02*
X0070971Y0106534D01*
X0073369Y0104136D02*
X0077400Y0104136D01*
X0077400Y0101737D02*
X0075768Y0101737D01*
X0065000Y0091000D02*
X0067500Y0088500D01*
X0067500Y0073500D01*
X0060000Y0066000D01*
X0055000Y0066000D01*
X0055000Y0071200D02*
X0052022Y0071200D01*
X0051276Y0071318D01*
X0050557Y0071552D01*
X0049884Y0071895D01*
X0049273Y0072339D01*
X0048739Y0072873D01*
X0048295Y0073484D01*
X0047952Y0074157D01*
X0047718Y0074876D01*
X0047600Y0075622D01*
X0047600Y0076000D01*
X0055000Y0076000D01*
X0055000Y0076000D01*
X0055000Y0076000D01*
X0055000Y0080800D01*
X0052022Y0080800D01*
X0051276Y0080682D01*
X0050557Y0080448D01*
X0049884Y0080105D01*
X0049273Y0079661D01*
X0048739Y0079127D01*
X0048295Y0078516D01*
X0047952Y0077843D01*
X0047718Y0077124D01*
X0047600Y0076378D01*
X0047600Y0076000D01*
X0055000Y0076000D01*
X0055000Y0071200D01*
X0055000Y0072955D02*
X0055000Y0072955D01*
X0055000Y0075354D02*
X0055000Y0075354D01*
X0055000Y0077752D02*
X0055000Y0077752D01*
X0055000Y0080151D02*
X0055000Y0080151D01*
X0060026Y0080151D02*
X0062900Y0080151D01*
X0062900Y0077752D02*
X0062078Y0077752D01*
X0062357Y0075354D02*
X0062848Y0075354D01*
X0051381Y0070557D02*
X0041949Y0070557D01*
X0039908Y0072955D02*
X0048679Y0072955D01*
X0047642Y0075354D02*
X0040700Y0075354D01*
X0040444Y0077752D02*
X0047922Y0077752D01*
X0049974Y0080151D02*
X0038910Y0080151D01*
X0035000Y0076000D02*
X0035000Y0071000D01*
X0050000Y0056000D01*
X0047800Y0065760D02*
X0046746Y0065760D01*
X0048315Y0068158D02*
X0044347Y0068158D01*
X0036133Y0063361D02*
X0029600Y0063361D01*
X0029600Y0065760D02*
X0033735Y0065760D01*
X0031336Y0068158D02*
X0029600Y0068158D01*
X0029600Y0070557D02*
X0030400Y0070557D01*
X0030091Y0072955D02*
X0029908Y0072955D01*
X0025000Y0076000D02*
X0025000Y0056000D01*
X0028910Y0080151D02*
X0031090Y0080151D01*
X0025000Y0101737D02*
X0025000Y0101737D01*
X0025000Y0104136D02*
X0025000Y0104136D01*
X0025000Y0106534D02*
X0025000Y0106534D01*
X0025000Y0108933D02*
X0025000Y0108933D01*
X0027917Y0142512D02*
X0034803Y0142512D01*
X0033493Y0144911D02*
X0030893Y0144911D01*
X0032291Y0147309D02*
X0033493Y0147309D01*
X0033035Y0149708D02*
X0035259Y0149708D01*
X0038464Y0149708D02*
X0038465Y0149708D01*
X0038464Y0147309D02*
X0038465Y0147309D01*
X0054283Y0125723D02*
X0150400Y0125723D01*
X0142500Y0108933D02*
X0139667Y0108933D01*
X0140484Y0106534D02*
X0142500Y0106534D01*
X0142500Y0104136D02*
X0140177Y0104136D01*
X0130400Y0070557D02*
X0121949Y0070557D01*
X0123900Y0068606D02*
X0123900Y0068606D01*
X0124347Y0068158D02*
X0130157Y0068158D01*
X0129700Y0065760D02*
X0124600Y0065760D01*
X0123900Y0063394D02*
X0123900Y0063394D01*
X0122606Y0062100D02*
X0122606Y0062100D01*
X0113132Y0060963D02*
X0105103Y0060963D01*
X0102500Y0060963D02*
X0102500Y0060963D01*
X0102500Y0058564D02*
X0102500Y0058564D01*
X0102500Y0056166D02*
X0102500Y0056166D01*
X0097150Y0056166D02*
X0096671Y0056166D01*
X0097167Y0053767D02*
X0094273Y0053767D01*
X0090000Y0056000D02*
X0100000Y0066000D01*
X0107502Y0058564D02*
X0110325Y0058564D01*
X0099565Y0051369D02*
X0071874Y0051369D01*
X0069600Y0048970D02*
X0078865Y0048970D01*
X0077800Y0046572D02*
X0069600Y0046572D01*
X0069600Y0044173D02*
X0076668Y0044173D01*
X0074269Y0041775D02*
X0069600Y0041775D01*
X0069306Y0039376D02*
X0071871Y0039376D01*
X0069472Y0036978D02*
X0067483Y0036978D01*
X0067606Y0037100D02*
X0067606Y0037100D01*
X0067074Y0034579D02*
X0065085Y0034579D01*
X0064675Y0032181D02*
X0062686Y0032181D01*
X0062277Y0029782D02*
X0060287Y0029782D01*
X0062500Y0023500D02*
X0085000Y0046000D01*
X0102500Y0046000D01*
X0107500Y0033500D02*
X0092500Y0033500D01*
X0108295Y0017790D02*
X0109798Y0017790D01*
X0109528Y0015391D02*
X0105896Y0015391D01*
X0103498Y0012993D02*
X0110387Y0012993D01*
X0115000Y0012993D02*
X0115000Y0012993D01*
X0115000Y0015391D02*
X0115000Y0015391D01*
X0115000Y0017790D02*
X0115000Y0017790D01*
X0115000Y0020188D02*
X0115000Y0020188D01*
X0111410Y0020188D02*
X0110693Y0020188D01*
X0090000Y0056000D02*
X0085000Y0056000D01*
X0078346Y0053767D02*
X0074273Y0053767D01*
X0076671Y0056166D02*
X0077800Y0056166D01*
X0095453Y0084948D02*
X0101930Y0084948D01*
X0101050Y0087346D02*
X0097852Y0087346D01*
X0100250Y0089745D02*
X0101050Y0089745D01*
X0107500Y0089745D02*
X0107500Y0089745D01*
X0107500Y0092143D02*
X0107500Y0092143D01*
X0107500Y0094542D02*
X0107500Y0094542D01*
X0107500Y0087346D02*
X0107500Y0087346D01*
X0107500Y0084948D02*
X0107500Y0084948D01*
X0107500Y0082549D02*
X0107500Y0082549D01*
X0061705Y0017790D02*
X0053295Y0017790D01*
X0050896Y0015391D02*
X0064104Y0015391D01*
X0066502Y0012993D02*
X0048498Y0012993D01*
X0025000Y0012993D02*
X0025000Y0012993D01*
X0025000Y0011200D02*
X0023012Y0011200D01*
X0020200Y0014012D01*
X0020200Y0016000D01*
X0025000Y0016000D01*
X0025000Y0016000D01*
X0025000Y0011200D01*
X0021219Y0012993D02*
X0010200Y0012993D01*
X0010200Y0015391D02*
X0020200Y0015391D01*
X0020200Y0017790D02*
X0010200Y0017790D01*
X0010200Y0020188D02*
X0022400Y0020188D01*
X0025000Y0020188D02*
X0025000Y0020188D01*
X0025000Y0017790D02*
X0025000Y0017790D01*
X0025000Y0015391D02*
X0025000Y0015391D01*
X0136909Y0180528D02*
X0131437Y0186000D01*
X0115000Y0186000D01*
X0110400Y0185685D02*
X0079800Y0185685D01*
X0079704Y0188084D02*
X0110579Y0188084D01*
X0111100Y0188606D02*
X0111100Y0188606D01*
X0112394Y0189900D02*
X0112394Y0189900D01*
X0112977Y0190482D02*
X0077306Y0190482D01*
X0075000Y0190482D02*
X0075000Y0190482D01*
X0075000Y0188084D02*
X0075000Y0188084D01*
X0075000Y0185685D02*
X0075000Y0185685D01*
X0075000Y0183287D02*
X0075000Y0183287D01*
X0079075Y0183287D02*
X0111208Y0183287D01*
X0111100Y0183394D02*
X0111100Y0183394D01*
X0121318Y0207272D02*
X0010200Y0207272D01*
X0010200Y0209670D02*
X0185501Y0209670D01*
X0185501Y0212069D02*
X0010200Y0212069D01*
X0010200Y0214468D02*
X0185501Y0214468D01*
X0185501Y0216866D02*
X0010200Y0216866D01*
X0010200Y0219265D02*
X0185501Y0219265D01*
X0185501Y0221663D02*
X0010200Y0221663D01*
X0179954Y0207272D02*
X0182054Y0207272D01*
X0182054Y0204873D02*
X0179954Y0204873D01*
X0179954Y0202475D02*
X0182054Y0202475D01*
M02*
